# xmcd
#
# Track frame offsets:
#	150
#	15885
#	33931
#	49616
#	66808
#	82440
#	98601
#	118550
#	143218
#	159030
#	178882
#	195384
#	209666
#
# Disc length: 3160 seconds
#
# Revision: 1
# Processed by: cddbd v1.5.2PL0 Copyright (c) Steve Scherf et al.
# Submitted via: audiograbber 1.83.01
#
DISCID=a70c560d
DTITLE=Super Chikan - Chikadelic
DYEAR=2009
DGENRE=Blues
TTITLE0=Ain`t nobody
TTITLE1=Hey super chikan
TTITLE2=Fred`s dollar store
TTITLE3=Juke joint saturday night
TTITLE4=Front porch boogie
TTITLE5=Hello mississippi
TTITLE6=Bad ass bass
TTITLE7=Here comes my baby
TTITLE8=School in the field
TTITLE9=Down in the delta
TTITLE10=Dance rock and sway
TTITLE11=Eyeball blues
TTITLE12=Shoot that thing - The real delta version
EXTD=
EXTT0=
EXTT1=
EXTT2=
EXTT3=
EXTT4=
EXTT5=
EXTT6=
EXTT7=
EXTT8=
EXTT9=
EXTT10=
EXTT11=
EXTT12=
PLAYORDER=
